<svg id="visual" viewBox="0 0 900 600" width="900" height="600" xmlns="http://www.w3.org/2000/svg" xmlns:xlink="http://www.w3.org/1999/xlink" version="1.1"><path d="M0 37L450 31L900 19L900 0L450 0L0 0Z" fill="#038373"></path><path d="M0 103L450 115L900 181L900 17L450 29L0 35Z" fill="#00957c"></path><path d="M0 121L450 145L900 235L900 179L450 113L0 101Z" fill="#00a784"></path><path d="M0 259L450 211L900 313L900 233L450 143L0 119Z" fill="#00b98a"></path><path d="M0 313L450 241L900 361L900 311L450 209L0 257Z" fill="#00cc8e"></path><path d="M0 319L450 295L900 391L900 359L450 239L0 311Z" fill="#00cc8e"></path><path d="M0 355L450 337L900 415L900 389L450 293L0 317Z" fill="#00cc8e"></path><path d="M0 379L450 355L900 463L900 413L450 335L0 353Z" fill="#00b98a"></path><path d="M0 397L450 373L900 469L900 461L450 353L0 377Z" fill="#00a784"></path><path d="M0 415L450 379L900 505L900 467L450 371L0 395Z" fill="#00957c"></path><path d="M0 601L450 601L900 601L900 503L450 377L0 413Z" fill="#038373"></path></svg>